<svg xmlns="http://www.w3.org/2000/svg" viewBox="0 0 246.84 92.05"><defs><style>.cls-1{fill:#999;}.cls-2{fill:none;stroke:#999;stroke-miterlimit:10;}</style></defs><g id="레이어_2" data-name="레이어 2"><g id="레이어_1-2" data-name="레이어 1"><path class="cls-1" d="M67.93,19.53V92.05h-4.8V33.81L34,74.87h-.2l-29-40.56V92.05H0V19.53H.1L33.86,67.58l34-48Z"/><path class="cls-1" d="M95.4,21.13V92.05H90.51V21.13Z"/><path class="cls-1" d="M185.91,19.53V92.05h-4.8V33.81L151.94,74.87h-.2l-29-40.56V92.05H118V19.53h.1l33.76,48.05,34-48Z"/><path class="cls-1" d="M240.9,26.27q5.94,5.15,5.94,14.94a22.9,22.9,0,0,1-2.4,10.39A18.44,18.44,0,0,1,237,59.34a24.74,24.74,0,0,1-12.63,2.95h-11V92.05h-4.9V21.13h16.39Q235,21.13,240.9,26.27ZM234.76,55a14.6,14.6,0,0,0,5.64-6.34,18.36,18.36,0,0,0,1.65-7.44,14.78,14.78,0,0,0-4.4-11.14q-4.4-4.25-12.29-4.25h-12V57.59h11Q230.76,57.59,234.76,55Z"/><path class="cls-2" d="M194.71.71,186,9.38,177.36.71l-8.68,8.67L160,.71l-8.53,8.52L143,.71l-8.52,8.52L125.91.71l-8.6,8.6-8.6-8.6"/></g></g></svg>