<svg xmlns="http://www.w3.org/2000/svg" viewBox="0 0 246.842 92.055"><defs><style>.cls-1{fill:#999;}</style></defs><g id="레이어_2" data-name="레이어 2"><g id="레이어_1-2" data-name="레이어 1"><path class="cls-1" d="M67.93,19.529V92.055h-4.8V33.814L33.965,74.872h-.2L4.8,34.314V92.055H0V19.529H.1L33.865,67.58,67.83,19.529Z"/><path class="cls-1" d="M95.4,21.128V92.055h-4.9V21.128Z"/><path class="cls-1" d="M185.906,19.529V92.055h-4.8V33.814l-29.17,41.058h-.2L122.771,34.314V92.055h-4.8V19.529h.1L151.841,67.58l33.965-48.051Z"/><path class="cls-1" d="M240.9,26.272q5.942,5.147,5.943,14.935a22.912,22.912,0,0,1-2.4,10.39A18.477,18.477,0,0,1,237,59.339q-5.044,2.948-12.636,2.946H213.377v29.77h-4.9V21.128h16.384Q234.954,21.128,240.9,26.272Zm-6.144,28.721a14.623,14.623,0,0,0,5.644-6.344,18.337,18.337,0,0,0,1.648-7.442,14.789,14.789,0,0,0-4.4-11.139q-4.4-4.244-12.287-4.245H213.377V57.59h10.989Q230.758,57.59,234.755,54.993Z"/><polygon class="cls-1" points="168.683 10.09 160.007 1.414 151.483 9.938 142.959 1.414 134.435 9.938 125.912 1.414 117.311 10.014 108.358 1.061 109.065 0.354 117.311 8.6 125.912 0 134.435 8.524 142.959 0 151.483 8.524 160.007 0 168.683 8.676 177.359 0 186.036 8.676 194.358 0.354 195.065 1.061 186.036 10.09 177.359 1.414 168.683 10.09"/></g></g></svg>